<mxfile host="app.diagrams.net" modified="2022-06-14T06:00:57.766Z" agent="5.0 (Macintosh; Intel Mac OS X 10_15_7) AppleWebKit/537.36 (KHTML, like Gecko) Chrome/102.0.5005.61 Safari/537.36" etag="VVCnhwtb8HVzyA_oov8x" version="19.0.3" type="github">
  <diagram name="Page-1" id="c7488fd3-1785-93aa-aadb-54a6760d102a">
    <mxGraphModel dx="2066" dy="1070" grid="1" gridSize="10" guides="1" tooltips="1" connect="1" arrows="1" fold="1" page="1" pageScale="1" pageWidth="1100" pageHeight="850" background="none" math="0" shadow="0">
      <root>
        <mxCell id="0" />
        <mxCell id="1" parent="0" />
        <mxCell id="Bgk9GH9rQEnVgyJYP4PN-14" style="edgeStyle=orthogonalEdgeStyle;rounded=0;orthogonalLoop=1;jettySize=auto;html=1;exitX=0.5;exitY=1;exitDx=0;exitDy=0;entryX=0.5;entryY=0;entryDx=0;entryDy=0;" edge="1" parent="1" source="Bgk9GH9rQEnVgyJYP4PN-13" target="Bgk9GH9rQEnVgyJYP4PN-15">
          <mxGeometry relative="1" as="geometry">
            <mxPoint x="115" y="130" as="targetPoint" />
          </mxGeometry>
        </mxCell>
        <mxCell id="Bgk9GH9rQEnVgyJYP4PN-13" value="START" style="ellipse;whiteSpace=wrap;html=1;rounded=0;shadow=0;labelBackgroundColor=none;strokeWidth=1;fontFamily=Verdana;fontSize=8;align=center;" vertex="1" parent="1">
          <mxGeometry x="80" y="20" width="70" height="70" as="geometry" />
        </mxCell>
        <mxCell id="Bgk9GH9rQEnVgyJYP4PN-18" style="edgeStyle=orthogonalEdgeStyle;rounded=0;orthogonalLoop=1;jettySize=auto;html=1;exitX=0.5;exitY=1;exitDx=0;exitDy=0;entryX=0.5;entryY=0;entryDx=0;entryDy=0;" edge="1" parent="1" source="Bgk9GH9rQEnVgyJYP4PN-15" target="Bgk9GH9rQEnVgyJYP4PN-17">
          <mxGeometry relative="1" as="geometry" />
        </mxCell>
        <mxCell id="Bgk9GH9rQEnVgyJYP4PN-15" value="资源鉴权" style="whiteSpace=wrap;html=1;fontSize=8;fontFamily=Verdana;rounded=0;shadow=0;labelBackgroundColor=none;strokeWidth=1;" vertex="1" parent="1">
          <mxGeometry x="55" y="140" width="120" height="60" as="geometry" />
        </mxCell>
        <mxCell id="Bgk9GH9rQEnVgyJYP4PN-20" style="edgeStyle=orthogonalEdgeStyle;rounded=0;orthogonalLoop=1;jettySize=auto;html=1;exitX=0.5;exitY=1;exitDx=0;exitDy=0;entryX=0.5;entryY=0;entryDx=0;entryDy=0;" edge="1" parent="1" source="Bgk9GH9rQEnVgyJYP4PN-17" target="Bgk9GH9rQEnVgyJYP4PN-32">
          <mxGeometry relative="1" as="geometry">
            <mxPoint x="115" y="610" as="targetPoint" />
          </mxGeometry>
        </mxCell>
        <mxCell id="Bgk9GH9rQEnVgyJYP4PN-21" value="是" style="edgeLabel;html=1;align=center;verticalAlign=middle;resizable=0;points=[];" vertex="1" connectable="0" parent="Bgk9GH9rQEnVgyJYP4PN-20">
          <mxGeometry x="-0.53" relative="1" as="geometry">
            <mxPoint as="offset" />
          </mxGeometry>
        </mxCell>
        <mxCell id="Bgk9GH9rQEnVgyJYP4PN-23" style="edgeStyle=orthogonalEdgeStyle;rounded=0;orthogonalLoop=1;jettySize=auto;html=1;exitX=1;exitY=0.5;exitDx=0;exitDy=0;entryX=0.5;entryY=0;entryDx=0;entryDy=0;" edge="1" parent="1" source="Bgk9GH9rQEnVgyJYP4PN-17" target="Bgk9GH9rQEnVgyJYP4PN-22">
          <mxGeometry relative="1" as="geometry" />
        </mxCell>
        <mxCell id="Bgk9GH9rQEnVgyJYP4PN-26" value="否" style="edgeLabel;html=1;align=center;verticalAlign=middle;resizable=0;points=[];" vertex="1" connectable="0" parent="Bgk9GH9rQEnVgyJYP4PN-23">
          <mxGeometry x="-0.7" y="-2" relative="1" as="geometry">
            <mxPoint as="offset" />
          </mxGeometry>
        </mxCell>
        <mxCell id="Bgk9GH9rQEnVgyJYP4PN-17" value="用户是否为&lt;br&gt;平台内置？" style="rhombus;whiteSpace=wrap;html=1;fontSize=8;fontFamily=Verdana;rounded=0;shadow=0;labelBackgroundColor=none;strokeWidth=1;" vertex="1" parent="1">
          <mxGeometry x="50" y="260" width="130" height="90" as="geometry" />
        </mxCell>
        <mxCell id="Bgk9GH9rQEnVgyJYP4PN-34" style="edgeStyle=orthogonalEdgeStyle;rounded=0;orthogonalLoop=1;jettySize=auto;html=1;exitX=0.5;exitY=1;exitDx=0;exitDy=0;entryX=0.5;entryY=0;entryDx=0;entryDy=0;" edge="1" parent="1" source="Bgk9GH9rQEnVgyJYP4PN-22" target="Bgk9GH9rQEnVgyJYP4PN-32">
          <mxGeometry relative="1" as="geometry" />
        </mxCell>
        <mxCell id="Bgk9GH9rQEnVgyJYP4PN-35" value="否" style="edgeLabel;html=1;align=center;verticalAlign=middle;resizable=0;points=[];" vertex="1" connectable="0" parent="Bgk9GH9rQEnVgyJYP4PN-34">
          <mxGeometry x="-0.8452" relative="1" as="geometry">
            <mxPoint as="offset" />
          </mxGeometry>
        </mxCell>
        <mxCell id="Bgk9GH9rQEnVgyJYP4PN-39" style="edgeStyle=orthogonalEdgeStyle;rounded=0;orthogonalLoop=1;jettySize=auto;html=1;exitX=1;exitY=0.5;exitDx=0;exitDy=0;entryX=0.5;entryY=0;entryDx=0;entryDy=0;" edge="1" parent="1" source="Bgk9GH9rQEnVgyJYP4PN-22" target="Bgk9GH9rQEnVgyJYP4PN-38">
          <mxGeometry relative="1" as="geometry" />
        </mxCell>
        <mxCell id="Bgk9GH9rQEnVgyJYP4PN-40" value="否" style="edgeLabel;html=1;align=center;verticalAlign=middle;resizable=0;points=[];" vertex="1" connectable="0" parent="Bgk9GH9rQEnVgyJYP4PN-39">
          <mxGeometry x="-0.8686" y="2" relative="1" as="geometry">
            <mxPoint y="1" as="offset" />
          </mxGeometry>
        </mxCell>
        <mxCell id="Bgk9GH9rQEnVgyJYP4PN-22" value="LoginType对应的鉴&lt;br&gt;权Adapter是开启？" style="rhombus;whiteSpace=wrap;html=1;fontSize=8;fontFamily=Verdana;rounded=0;shadow=0;labelBackgroundColor=none;strokeWidth=1;" vertex="1" parent="1">
          <mxGeometry x="265" y="330" width="140" height="120" as="geometry" />
        </mxCell>
        <mxCell id="Bgk9GH9rQEnVgyJYP4PN-45" value="" style="edgeStyle=orthogonalEdgeStyle;rounded=0;orthogonalLoop=1;jettySize=auto;html=1;" edge="1" parent="1" source="Bgk9GH9rQEnVgyJYP4PN-30" target="Bgk9GH9rQEnVgyJYP4PN-44">
          <mxGeometry relative="1" as="geometry" />
        </mxCell>
        <mxCell id="Bgk9GH9rQEnVgyJYP4PN-48" value="是" style="edgeLabel;html=1;align=center;verticalAlign=middle;resizable=0;points=[];" vertex="1" connectable="0" parent="Bgk9GH9rQEnVgyJYP4PN-45">
          <mxGeometry x="-0.52" y="1" relative="1" as="geometry">
            <mxPoint as="offset" />
          </mxGeometry>
        </mxCell>
        <mxCell id="Bgk9GH9rQEnVgyJYP4PN-47" value="" style="edgeStyle=orthogonalEdgeStyle;rounded=0;orthogonalLoop=1;jettySize=auto;html=1;" edge="1" parent="1" source="Bgk9GH9rQEnVgyJYP4PN-30" target="Bgk9GH9rQEnVgyJYP4PN-46">
          <mxGeometry relative="1" as="geometry" />
        </mxCell>
        <mxCell id="Bgk9GH9rQEnVgyJYP4PN-49" value="否" style="edgeLabel;html=1;align=center;verticalAlign=middle;resizable=0;points=[];" vertex="1" connectable="0" parent="Bgk9GH9rQEnVgyJYP4PN-47">
          <mxGeometry x="-0.65" relative="1" as="geometry">
            <mxPoint y="1" as="offset" />
          </mxGeometry>
        </mxCell>
        <mxCell id="Bgk9GH9rQEnVgyJYP4PN-30" value="鉴权成功?" style="rhombus;whiteSpace=wrap;html=1;fontSize=8;fontFamily=Verdana;rounded=0;shadow=0;labelBackgroundColor=none;strokeWidth=1;" vertex="1" parent="1">
          <mxGeometry x="265" y="650" width="140" height="120" as="geometry" />
        </mxCell>
        <mxCell id="Bgk9GH9rQEnVgyJYP4PN-37" style="edgeStyle=orthogonalEdgeStyle;rounded=0;orthogonalLoop=1;jettySize=auto;html=1;exitX=0.5;exitY=1;exitDx=0;exitDy=0;" edge="1" parent="1" source="Bgk9GH9rQEnVgyJYP4PN-32" target="Bgk9GH9rQEnVgyJYP4PN-30">
          <mxGeometry relative="1" as="geometry" />
        </mxCell>
        <mxCell id="Bgk9GH9rQEnVgyJYP4PN-32" value="&lt;span style=&quot;font-family: Verdana; font-size: 8px;&quot;&gt;平台鉴权&lt;/span&gt;" style="rounded=1;whiteSpace=wrap;html=1;absoluteArcSize=1;arcSize=14;strokeWidth=2;" vertex="1" parent="1">
          <mxGeometry x="65" y="490" width="100" height="100" as="geometry" />
        </mxCell>
        <mxCell id="Bgk9GH9rQEnVgyJYP4PN-41" style="edgeStyle=orthogonalEdgeStyle;rounded=0;orthogonalLoop=1;jettySize=auto;html=1;exitX=0.5;exitY=1;exitDx=0;exitDy=0;entryX=0.5;entryY=0;entryDx=0;entryDy=0;" edge="1" parent="1" source="Bgk9GH9rQEnVgyJYP4PN-38" target="Bgk9GH9rQEnVgyJYP4PN-30">
          <mxGeometry relative="1" as="geometry" />
        </mxCell>
        <mxCell id="Bgk9GH9rQEnVgyJYP4PN-38" value="Adapter鉴权" style="rounded=1;whiteSpace=wrap;html=1;absoluteArcSize=1;arcSize=14;strokeWidth=2;" vertex="1" parent="1">
          <mxGeometry x="515" y="490" width="100" height="100" as="geometry" />
        </mxCell>
        <mxCell id="Bgk9GH9rQEnVgyJYP4PN-44" value="成功" style="strokeWidth=2;html=1;shape=mxgraph.flowchart.terminator;whiteSpace=wrap;" vertex="1" parent="1">
          <mxGeometry x="55" y="680" width="100" height="60" as="geometry" />
        </mxCell>
        <mxCell id="Bgk9GH9rQEnVgyJYP4PN-46" value="失败" style="strokeWidth=2;html=1;shape=mxgraph.flowchart.terminator;whiteSpace=wrap;" vertex="1" parent="1">
          <mxGeometry x="545" y="680" width="100" height="60" as="geometry" />
        </mxCell>
      </root>
    </mxGraphModel>
  </diagram>
</mxfile>
